<svg width="200" height="200" viewBox="0 0 200 200" fill="none" xmlns="http://www.w3.org/2000/svg">
  <!-- Background Circle -->
  <circle cx="100" cy="100" r="90" fill="url(#birthGradient)" opacity="0.1"/>
  
  <!-- Certificate -->
  <rect x="50" y="40" width="100" height="120" fill="#ffffff" rx="8" stroke="#e5e7eb" stroke-width="2"/>
  
  <!-- Header -->
  <rect x="60" y="55" width="80" height="6" fill="#7c3aed" rx="3"/>
  <rect x="70" y="70" width="60" height="3" fill="#9ca3af" rx="1.5"/>
  
  <!-- Baby Icon -->
  <circle cx="100" cy="95" r="12" fill="#fef3c7"/>
  <circle cx="96" cy="92" r="1.5" fill="#374151"/>
  <circle cx="104" cy="92" r="1.5" fill="#374151"/>
  <path d="M94 98 Q100 102 106 98" stroke="#374151" stroke-width="1" fill="none"/>
  
  <!-- Text Lines -->
  <rect x="60" y="115" width="50" height="2" fill="#9ca3af" rx="1"/>
  <rect x="60" y="125" width="70" height="2" fill="#9ca3af" rx="1"/>
  <rect x="60" y="135" width="45" height="2" fill="#9ca3af" rx="1"/>
  
  <!-- Seal -->
  <circle cx="130" cy="140" r="8" fill="#10b981"/>
  <path d="M126 140l3 3 6-6" stroke="#ffffff" stroke-width="1.5" fill="none"/>
  
  <!-- Decorative Elements -->
  <circle cx="70" cy="30" r="3" fill="#7c3aed" opacity="0.3"/>
  <circle cx="130" cy="25" r="2" fill="#2563eb" opacity="0.3"/>
  <circle cx="40" cy="120" r="2.5" fill="#10b981" opacity="0.3"/>
  <circle cx="160" cy="110" r="3" fill="#f59e0b" opacity="0.3"/>
  
  <defs>
    <linearGradient id="birthGradient" x1="0%" y1="0%" x2="100%" y2="100%">
      <stop offset="0%" style="stop-color:#7c3aed;stop-opacity:1" />
      <stop offset="100%" style="stop-color:#2563eb;stop-opacity:1" />
    </linearGradient>
  </defs>
</svg>