<svg width="600" height="400" viewBox="0 0 600 400" fill="none" xmlns="http://www.w3.org/2000/svg">
  <!-- Background -->
  <rect width="600" height="400" fill="url(#heroGradient)"/>
  
  <!-- Government Building -->
  <rect x="200" y="180" width="200" height="120" fill="#ffffff" rx="8"/>
  <rect x="210" y="190" width="20" height="100" fill="#e5e7eb"/>
  <rect x="240" y="190" width="20" height="100" fill="#e5e7eb"/>
  <rect x="270" y="190" width="20" height="100" fill="#e5e7eb"/>
  <rect x="300" y="190" width="20" height="100" fill="#e5e7eb"/>
  <rect x="330" y="190" width="20" height="100" fill="#e5e7eb"/>
  <rect x="360" y="190" width="20" height="100" fill="#e5e7eb"/>
  
  <!-- Roof -->
  <polygon points="190,180 300,120 410,180" fill="#7c3aed"/>
  
  <!-- Flag -->
  <rect x="295" y="120" width="10" height="60" fill="#374151"/>
  <rect x="305" y="120" width="30" height="20" fill="#dc2626"/>
  <rect x="305" y="130" width="30" height="10" fill="#fbbf24"/>
  <rect x="305" y="140" width="30" height="10" fill="#10b981"/>
  
  <!-- Documents floating -->
  <g transform="translate(80,100)">
    <rect width="60" height="80" fill="#ffffff" rx="4" stroke="#e5e7eb" stroke-width="2"/>
    <rect x="8" y="12" width="44" height="4" fill="#7c3aed"/>
    <rect x="8" y="24" width="32" height="2" fill="#9ca3af"/>
    <rect x="8" y="32" width="36" height="2" fill="#9ca3af"/>
    <rect x="8" y="40" width="28" height="2" fill="#9ca3af"/>
    <circle cx="30" cy="60" r="8" fill="#10b981"/>
    <path d="M26 60l3 3 6-6" stroke="#ffffff" stroke-width="2" fill="none"/>
  </g>
  
  <g transform="translate(460,120) rotate(15)">
    <rect width="60" height="80" fill="#ffffff" rx="4" stroke="#e5e7eb" stroke-width="2"/>
    <rect x="8" y="12" width="44" height="4" fill="#2563eb"/>
    <rect x="8" y="24" width="32" height="2" fill="#9ca3af"/>
    <rect x="8" y="32" width="36" height="2" fill="#9ca3af"/>
    <rect x="8" y="40" width="28" height="2" fill="#9ca3af"/>
    <circle cx="30" cy="60" r="8" fill="#f59e0b"/>
    <path d="M26 60l3 3 6-6" stroke="#ffffff" stroke-width="2" fill="none"/>
  </g>
  
  <!-- Digital Elements -->
  <circle cx="120" cy="250" r="30" fill="#7c3aed" opacity="0.2"/>
  <circle cx="480" cy="280" r="25" fill="#2563eb" opacity="0.2"/>
  <circle cx="150" cy="320" r="20" fill="#10b981" opacity="0.2"/>
  
  <!-- Connection Lines -->
  <path d="M150 250 Q300 200 450 280" stroke="#7c3aed" stroke-width="2" fill="none" opacity="0.3" stroke-dasharray="5,5"/>
  
  <!-- Gradients -->
  <defs>
    <linearGradient id="heroGradient" x1="0%" y1="0%" x2="100%" y2="100%">
      <stop offset="0%" style="stop-color:#f8fafc;stop-opacity:1" />
      <stop offset="100%" style="stop-color:#e2e8f0;stop-opacity:1" />
    </linearGradient>
  </defs>
</svg>