<svg width="200" height="200" viewBox="0 0 200 200" fill="none" xmlns="http://www.w3.org/2000/svg">
  <!-- Background Circle -->
  <circle cx="100" cy="100" r="90" fill="url(#marriageGradient)" opacity="0.1"/>
  
  <!-- Certificate -->
  <rect x="45" y="45" width="110" height="110" fill="#ffffff" rx="8" stroke="#e5e7eb" stroke-width="2"/>
  
  <!-- Decorative Border -->
  <rect x="50" y="50" width="100" height="100" fill="none" stroke="#ec4899" stroke-width="1" rx="4" stroke-dasharray="3,2"/>
  
  <!-- Header -->
  <rect x="60" y="65" width="80" height="6" fill="#ec4899" rx="3"/>
  
  <!-- Hearts -->
  <path d="M85 85 C85 80, 90 80, 90 85 C90 80, 95 80, 95 85 C95 90, 90 95, 90 95 C90 95, 85 90, 85 85 Z" fill="#f472b6"/>
  <path d="M105 85 C105 80, 110 80, 110 85 C110 80, 115 80, 115 85 C115 90, 110 95, 110 95 C110 95, 105 90, 105 85 Z" fill="#f472b6"/>
  
  <!-- Couple Icons -->
  <circle cx="80" cy="110" r="6" fill="#fbbf24"/>
  <circle cx="120" cy="110" r="6" fill="#fbbf24"/>
  <rect x="75" y="116" width="10" height="15" fill="#3b82f6" rx="2"/>
  <rect x="115" y="116" width="10" height="15" fill="#ec4899" rx="2"/>
  
  <!-- Rings -->
  <circle cx="90" cy="125" r="4" fill="none" stroke="#fbbf24" stroke-width="2"/>
  <circle cx="110" cy="125" r="4" fill="none" stroke="#fbbf24" stroke-width="2"/>
  
  <!-- Text Lines -->
  <rect x="60" y="140" width="50" height="2" fill="#9ca3af" rx="1"/>
  <rect x="115" y="140" width="25" height="2" fill="#9ca3af" rx="1"/>
  
  <!-- Date -->
  <rect x="60" y="150" width="30" height="2" fill="#9ca3af" rx="1"/>
  
  <!-- Seal -->
  <circle cx="130" cy="130" r="8" fill="#ec4899"/>
  <path d="M126 130l3 3 6-6" stroke="#ffffff" stroke-width="1.5" fill="none"/>
  
  <!-- Decorative Elements -->
  <circle cx="35" cy="60" r="3" fill="#ec4899" opacity="0.3"/>
  <circle cx="165" cy="70" r="2" fill="#f472b6" opacity="0.3"/>
  <circle cx="30" cy="140" r="2.5" fill="#fbbf24" opacity="0.3"/>
  <circle cx="170" cy="130" r="3" fill="#3b82f6" opacity="0.3"/>
  
  <defs>
    <linearGradient id="marriageGradient" x1="0%" y1="0%" x2="100%" y2="100%">
      <stop offset="0%" style="stop-color:#ec4899;stop-opacity:1" />
      <stop offset="100%" style="stop-color:#be185d;stop-opacity:1" />
    </linearGradient>
  </defs>
</svg>