<svg width="200" height="200" viewBox="0 0 200 200" fill="none" xmlns="http://www.w3.org/2000/svg">
  <!-- Background Circle -->
  <circle cx="100" cy="100" r="90" fill="url(#nameGradient)" opacity="0.1"/>
  
  <!-- Document -->
  <rect x="40" y="50" width="120" height="100" fill="#ffffff" rx="8" stroke="#e5e7eb" stroke-width="2"/>
  
  <!-- Header -->
  <rect x="50" y="65" width="100" height="6" fill="#f59e0b" rx="3"/>
  
  <!-- Old Name (crossed out) -->
  <rect x="55" y="85" width="60" height="3" fill="#9ca3af" rx="1.5"/>
  <line x1="55" y1="86.5" x2="115" y2="86.5" stroke="#dc2626" stroke-width="2"/>
  
  <!-- Arrow -->
  <path d="M125 86.5 L135 86.5 M130 81.5 L135 86.5 L130 91.5" stroke="#10b981" stroke-width="2" fill="none"/>
  
  <!-- New Name -->
  <rect x="55" y="105" width="70" height="4" fill="#10b981" rx="2"/>
  
  <!-- Additional Details -->
  <rect x="55" y="120" width="45" height="2" fill="#9ca3af" rx="1"/>
  <rect x="55" y="130" width="55" height="2" fill="#9ca3af" rx="1"/>
  
  <!-- Signature Line -->
  <line x1="55" y1="140" x2="105" y2="140" stroke="#9ca3af" stroke-width="1" stroke-dasharray="2,2"/>
  
  <!-- Seal -->
  <circle cx="130" cy="130" r="8" fill="#f59e0b"/>
  <path d="M126 130l3 3 6-6" stroke="#ffffff" stroke-width="1.5" fill="none"/>
  
  <!-- Decorative Elements -->
  <circle cx="30" cy="70" r="3" fill="#f59e0b" opacity="0.3"/>
  <circle cx="170" cy="60" r="2" fill="#10b981" opacity="0.3"/>
  <circle cx="25" cy="130" r="2.5" fill="#7c3aed" opacity="0.3"/>
  <circle cx="175" cy="140" r="3" fill="#2563eb" opacity="0.3"/>
  
  <!-- Person Icon -->
  <circle cx="100" cy="25" r="8" fill="#fbbf24"/>
  <circle cx="100" cy="40" r="12" fill="#fbbf24" opacity="0.7"/>
  
  <defs>
    <linearGradient id="nameGradient" x1="0%" y1="0%" x2="100%" y2="100%">
      <stop offset="0%" style="stop-color:#f59e0b;stop-opacity:1" />
      <stop offset="100%" style="stop-color:#d97706;stop-opacity:1" />
    </linearGradient>
  </defs>
</svg>